<svg fill="#D44100" xmlns="http://www.w3.org/2000/svg" xmlns:xlink="http://www.w3.org/1999/xlink" version="1.1" x="0px" y="0px" viewBox="0 0 100 100" enable-background="new 0 0 100 100" xml:space="preserve"><path d="M67.014,94.691v-8.147c4.298,1.573,8.753,3.164,13.312,3.79c1.533,0.209,3.497,0.445,4.898-0.405  c2.161-1.312,2.893-4.729,2.77-7.023c-0.104-1.904-0.704-4.227-1.957-5.727c-0.827-0.99-2.075-0.909-3.239-1.084  c-1.246-0.188-2.477-0.475-3.678-0.85c-4.957-1.557-9.361-4.61-12.943-8.33c-0.925-0.958-1.807-1.968-2.601-3.039  c-1.457-1.966-3.468-3.496-5.685-4.519c3.7-3.403,4.865-8.922,2.793-13.512c-1.848-4.093-5.982-6.85-10.474-6.958  c-4.508-0.108-8.774,2.453-10.814,6.472c-2.336,4.6-1.316,10.324,2.423,13.871c-2.107,0.922-4.41,2.402-5.741,4.322  c-0.368,0.533-0.773,1.041-1.187,1.54c-2.073,2.498-4.506,4.72-7.193,6.54c-1.81,1.225-3.747,2.268-5.785,3.053  c-1.059,0.409-2.145,0.75-3.25,1.014c-1.267,0.302-2.559,0.357-3.827,0.612c-1.991,0.402-2.833,3.238-3.191,4.953  c-0.52,2.487-0.143,5.089,1.257,7.231c0.969,1.482,2.154,1.993,3.942,2.003c1.882,0.012,3.77-0.377,5.593-0.818  c3.387-0.815,6.702-1.941,9.972-3.138v8.147h5.297V73.604c0-5.842,4.752-10.596,10.593-10.596h2.82  c5.842,0,10.595,4.754,10.595,10.596v21.087H67.014L67.014,94.691z M49.925,43.987c3.644,0,6.693,3.049,6.693,6.693  c0,3.644-3.049,6.692-6.693,6.692c-3.643,0-6.694-3.049-6.694-6.692C43.231,47.038,46.281,43.987,49.925,43.987z M17.048,85.452  c-0.006,0-0.013,0-0.017,0c-0.844-1.549-0.447-3.226-0.036-4.253c6.492-0.879,11.735-3.8,15.612-6.825v6.647  C26.417,83.337,19.379,85.452,17.048,85.452z M82.395,85.452c-2.069,0-4.231-0.736-6.196-1.302  c-3.167-0.913-6.292-1.974-9.378-3.129v-6.645c3.875,3.022,9.117,5.943,15.609,6.823C82.842,82.232,83.238,83.908,82.395,85.452  C82.389,85.452,83.238,83.908,82.395,85.452z"></path><path d="M73.897,49.736c-0.735,0-1.44-0.425-1.762-1.142c-0.435-0.973,0-2.114,0.974-2.55l15.106-6.764  c0.973-0.436,2.114,0,2.55,0.973c0.435,0.973,0,2.114-0.974,2.549l-15.105,6.764C74.43,49.682,74.162,49.736,73.897,49.736z"></path><path d="M65.901,39.371c-0.419,0-0.843-0.136-1.197-0.417c-0.836-0.663-0.976-1.875-0.313-2.711l12.694-16  c0.662-0.834,1.875-0.975,2.71-0.312c0.836,0.662,0.976,1.875,0.313,2.711l-12.694,16C67.033,39.121,66.471,39.371,65.901,39.371z"></path><path d="M53.532,33.548c-0.074,0-0.149-0.004-0.226-0.013c-1.058-0.123-1.815-1.081-1.692-2.139l2.765-23.821  c0.123-1.059,1.081-1.817,2.14-1.694s1.816,1.081,1.693,2.139l-2.766,23.821C55.333,32.824,54.499,33.548,53.532,33.548z"></path><path d="M41.275,34.343c-0.846,0-1.621-0.559-1.858-1.413L35.251,17.95c-0.286-1.026,0.315-2.09,1.343-2.376  c1.026-0.285,2.09,0.315,2.375,1.342l4.166,14.98c0.287,1.027-0.315,2.09-1.341,2.376C41.62,34.32,41.446,34.343,41.275,34.343z"></path><path d="M30.178,40.473c-0.517,0-1.033-0.206-1.413-0.614L9.098,18.749c-0.726-0.78-0.683-2.001,0.096-2.728  c0.78-0.726,2.001-0.684,2.727,0.096l19.668,21.11c0.726,0.78,0.682,2.001-0.097,2.728C31.121,40.301,30.648,40.473,30.178,40.473z"></path><path d="M22.749,51.551c-0.221,0-0.446-0.038-0.666-0.119L9.844,46.931c-1-0.368-1.513-1.477-1.145-2.477  c0.367-1,1.477-1.513,2.477-1.146l12.24,4.501c1,0.368,1.513,1.478,1.145,2.477C24.273,51.066,23.536,51.551,22.749,51.551z"></path><path d="M81.451,59.525h-4.784c-1.066,0-1.931-0.864-1.931-1.93s0.864-1.93,1.931-1.93h4.784c1.066,0,1.93,0.864,1.93,1.93  S82.518,59.525,81.451,59.525z"></path><path d="M19.021,59.525h-4.784c-1.065,0-1.929-0.864-1.929-1.93s0.864-1.93,1.929-1.93h4.784c1.066,0,1.93,0.864,1.93,1.93  S20.087,59.525,19.021,59.525z"></path></svg>